<svg xmlns="http://www.w3.org/2000/svg" xml:space="preserve" viewBox="0 0 283.46 283.46"><path fill="#FFF" d="M269.295 141.73c0 70.451-57.116 127.562-127.565 127.562-70.448 0-127.56-57.111-127.56-127.562 0-70.447 57.112-127.559 127.56-127.559 70.449.001 127.565 57.112 127.565 127.559z"/><path fill="#1E1E1E" d="M141.731 0C63.454 0 0 63.455 0 141.734c0 78.275 63.454 141.73 141.731 141.73 78.275 0 141.733-63.455 141.733-141.73C283.465 63.455 220.007 0 141.731 0zm0 259.76c-65.081 0-118.026-52.948-118.026-118.025 0-65.081 52.946-118.029 118.026-118.029s118.028 52.948 118.028 118.029c.001 65.077-52.947 118.025-118.028 118.025z"/><path fill="#1E1E1E" d="M177.499 114.854h-71.534V71.002H82.567v66.084h94.932v75.647h23.398V71.002h-23.398z"/><path fill="#1E1E1E" d="M82.567 212.726h23.398v-43.86h62.577v-22.231H82.567z"/></svg>