<svg xmlns="http://www.w3.org/2000/svg" xml:space="preserve" viewBox="0 0 283.46 283.46"><path fill="#FFF" d="M269.292 141.73c0 70.449-57.112 127.562-127.562 127.562-70.449 0-127.559-57.113-127.559-127.562 0-70.446 57.11-127.559 127.559-127.559 70.45.001 127.562 57.113 127.562 127.559z"/><path fill="#1E1E1E" d="M141.73 0C63.456 0 0 63.457 0 141.73c0 78.277 63.456 141.734 141.73 141.734 78.278 0 141.734-63.457 141.734-141.734C283.464 63.457 220.008 0 141.73 0zm0 259.76c-65.076 0-118.024-52.949-118.024-118.027 0-65.08 52.948-118.024 118.024-118.024 65.079 0 118.027 52.944 118.027 118.024 0 65.078-52.948 118.027-118.027 118.027z"/><path fill="#1E1E1E" d="M212.598 86.583V70.864h-15.72l-55.148 55.148-55.145-55.145H70.867v141.731h23.398V109.982l47.465 47.467z"/><path fill="#13171B" d="M103.224 133.23v31.434l38.506 38.511 47.468-47.468v56.846h23.401V100.87l-70.869 70.867z"/></svg>