<svg xmlns="http://www.w3.org/2000/svg"
  viewBox="0 0 150 150">
  <g fill="#1c3b70">
    <path
      d="M134.323 120.6197c-.66 0-1.33-.18-1.93-.55-1.73-1.07-2.27-3.34-1.2-5.06 5.81-9.41 9.17-20.25 9.73-31.37 1.81-36.36-26.3-67.41-62.65-69.22-17.61-.88-34.51 5.16-47.58 16.99-13.08 11.83-20.76 28.05-21.63 45.66-.66 13.21 2.6 26.16 9.42 37.43 1.05 1.74.5 4-1.24 5.05s-4 .5-5.05-1.24c-7.59-12.53-11.21-26.91-10.48-41.6.97-19.57 9.51-37.6 24.04-50.75 14.53-13.15 33.33-19.85 52.89-18.89 40.41 2.01 71.65 36.52 69.64 76.93-.61 12.35-4.35 24.41-10.81 34.87-.7 1.13-1.9 1.75-3.13 1.75" />
    <path
      d="M86.875 51.3107v16.29l-11.14 5.23-12.55-5.77v-15.75c0-2.23 1.81-4.04 4.04-4.04h15.6c2.23 0 4.04 1.81 4.04 4.04m-41.19-10.75c-2.26 0-4.09 1.84-4.09 4.1v21.8h9.28v-25.9zm3.44 19.57c0 1.14-.92 2.06-2.06 2.06h-1.3c-1.15 0-2.07-.92-2.07-2.06v-13.18c0-1.15.92-2.06 2.07-2.06h1.3c1.14 0 2.06.91 2.06 2.06zm49.98 13.85v25.39c0 1.55-.81 2.91-2.03 3.7-.68.44-1.48.68-2.34.68h-39.49c-.86 0-1.66-.24-2.34-.68-1.22-.78-2.03-2.14-2.03-3.7v-25.98h-9.28v31.72h66.77v-31.13zm5.17-33.42h-5.17v26.5h9.26v-22.4c0-2.26-1.83-4.1-4.09-4.1m2.15 19.57c0 1.14-.92 2.06-2.07 2.06h-1.3c-1.14 0-2.07-.92-2.07-2.06v-13.18c0-1.15.93-2.06 2.07-2.06h1.3c1.15 0 2.07.91 2.07 2.06zM94.755 135.7397h-6.15l8.52 7.28h12.29l-14.65-7.28zm-38.95 0-14.65 7.28h12.29l8.52-7.28h-6.15z" />
    <path
      d="M97.725 39.0607v.79h-15.88c.65-1.07.99-2.31.99-3.59 0-.32-.02-.64-.06-.95-.47-3.44-3.44-6.02-6.91-6.02s-6.45 2.59-6.92 6.02c-.04.32-.06.64-.06.96 0 1.28.35 2.52.99 3.59h-17.54v-.79c0-1.63 1.32-2.95 2.95-2.95h1.17v-3.54c0-2.04 1.66-3.69 3.69-3.69h29.74c2.04 0 3.7 1.66 3.7 3.69v3.54h1.19c1.63 0 2.95 1.32 2.95 2.95m1.37 1.49h.05v.72h-.05zm8.878 66.08h-66c-2.49 0-4.5 2.01-4.5 4.5v17.09c0 2.49 2.01 4.51 4.5 4.51h22.75v-4.02c0-2.64 2.13-4.77 4.77-4.77h10.96c2.63 0 4.76 2.13 4.76 4.77v4.02h22.75c2.49 0 4.51-2.02 4.51-4.51v-17.09c0-2.49-2.02-4.5-4.51-4.5m-51.84 10.86c0 .15-.02.3-.06.44-.09.32-.41.53-.72.52s-.59-.22-.68-.53c-.04-.12-.06-.27-.06-.39v-3.86c0-.11.02-.23.04-.35.09-.36.37-.58.73-.57.35 0 .64.21.72.58.03.12.03.26.03.39v3.76zm36.36-2.39v.26c-.04.37-.35.66-.74.66s-.7-.29-.72-.67c-.02-.37-.01-.73-.01-1.1v-.45c-.14-.09-.22 0-.32.04-1.14.59-2.26 1.19-3.4 1.79-2.36 1.23-4.84 2.16-7.43 2.81-1.39.35-2.8.59-4.22.74-1.62.18-3.26.21-4.89.15-1.2-.05-2.38-.19-3.56-.39-2.04-.35-4.01-.89-5.95-1.61-.77-.28-1.56-.55-2.35-.81-.03-.02-.08 0-.15-.02 0 .09-.02.17-.03.25v.92c0 .18-.05.35-.16.49-.19.23-.5.34-.78.25-.3-.1-.5-.3-.54-.63-.01-.1 0-.2 0-.3-.01-1.26-.01-2.51 0-3.77 0-.1-.01-.2 0-.3.04-.37.33-.64.7-.65.4-.02.72.24.77.63.02.12.01.27.01.4v1.54c.12.17.28.2.43.26 1.2.47 2.43.84 3.67 1.14 1.89.46 3.81.75 5.74.85 1.59.08 3.18.08 4.77-.03 1.08-.08 2.15-.2 3.22-.37 2.2-.35 4.37-.89 6.49-1.61 1.47-.5 2.92-1.09 4.33-1.74 1.2-.55 2.36-1.17 3.49-1.82.05-.03.09-.07.17-.13v-.85c.01-.29.16-.49.43-.61.25-.12.51-.1.74.06.18.12.28.3.3.51v4.12zm2.3-.69v.35c-.04.4-.31.65-.67.67-.4.03-.72-.21-.79-.6-.02-.1-.02-.2-.02-.3v-3.85c0-.12 0-.24.03-.36.09-.35.43-.61.77-.58.43.05.67.37.68.69v.35zM63.1951 73.1102l-.26-.1.26.11zm26.3799.8805-13.8 6.48-15.4-7.07h-8.08v25.98c0 1.62 1.32 2.95 2.95 2.95h39.49c1.63 0 2.95-1.33 2.95-2.95v-25.39h-8.1zm-28.13 23.83c-3.93 0-7.11-3.19-7.11-7.11s3.18-7.11 7.11-7.11 7.1 3.19 7.1 7.11-3.19 7.11-7.1 7.11m20.11.83c0 .88-.71 1.6-1.6 1.6h-10.01c-.88 0-1.59-.72-1.59-1.6v-.76c0-.89.71-1.59 1.59-1.59h10.01c.89 0 1.6.71 1.6 1.59zm7.68-.83c-3.92 0-7.11-3.19-7.11-7.11s3.2-7.11 7.11-7.11 7.1 3.19 7.1 7.11-3.19 7.11-7.1 7.11m8.44-56.54v25.78h-8.46v-17.34c0-2.45-2-4.45-4.44-4.45h-19.37c-2.45 0-4.45 2-4.45 4.45v16.74h-8.67v-25.19h18.68c1.31 1.27 3.02 1.96 4.85 1.96s3.56-.71 4.85-1.96h17.01zm-46.81-1.43h.05v.71h-.05z" />
    <path
      d="M61.495 90.3307c0 1.56-1.27 2.83-2.83 2.83s-2.83-1.27-2.83-2.83 1.26-2.83 2.83-2.83 2.83 1.26 2.83 2.83m27.79 0c0 1.56-1.27 2.83-2.83 2.83s-2.83-1.27-2.83-2.83 1.27-2.83 2.83-2.83 2.83 1.26 2.83 2.83M61.5751 67.8902l1.62.75 10.54 4.84 2.01.92 1.97-.92 9.16-4.3 1.48-.69h20v4.07h-19.1l-13.49 6.34-11.79-5.42-.78-.36v-.01l-.26-.1-2.25-1.04h-19.11v-4.08z" />
    <path
      d="m62.9351 73.0102.26.1v.01zM80.715 36.3107c0 2.67-2.17 4.84-4.84 4.84s-4.84-2.17-4.84-4.84 2.17-4.84 4.84-4.84 4.84 2.17 4.84 4.84" />
  </g>
</svg>