<svg xmlns="http://www.w3.org/2000/svg" viewBox="0 0 885.83 885.83">
  <path fill="#f4731c"
    d="M256.15914 391.89245c10.68711-8.57306 18.16597-8.7749 28.3644-8.7749l556.64361.04249 44.65005-44.66067H283.15313c-21.02366 0-42.07918 6.8627-57.52557 21.24675L99.68745 485.68622h62.77352z" />
  <path fill="#ed1c24"
    d="M629.677 493.96184c-10.68711 8.56244-18.16597 8.7749-28.3644 8.7749l-556.63299-.04249L.01894 547.35492h602.66407c21.02366 0 42.07919-6.8627 57.52557-21.24675L786.1487 400.15744h-62.77352z" />
  <path fill="#231f20"
    d="m303.32692 449.25867 11.60073-34.94028h.28683l12.60995 34.94028zm6.37403 41.61176v-10.7296h-11.30327c-2.75146 0-4.64242-.57367-4.64242-2.60273 0-1.30668.28683-2.1778.58429-3.0489l4.78052-14.50092h32.91121l4.78052 14.50091c.29746.87112.58429 2.1778.58429 3.48447 0 1.44478-1.15795 2.16717-4.4937 2.16717H321.4504v10.7296h50.4504v-10.7296c-7.6807 0-12.60994-1.00922-15.22329-7.82943l-28.99119-77.57189h-20.30127l-27.69514 77.57189c-2.46462 6.8202-7.5426 7.82943-15.2233 7.82943v10.7296z" />
  <path fill="#231f20"
    d="M362.3079 394.69702v39.5827h10.72961v-6.52276c0-15.37202 7.97815-22.33033 24.07257-22.33033v69.45563c0 3.7713-1.4554 5.21607-5.9491 5.21607h-20.89617v10.72961h96.23715v-10.7296h-43.15215c-4.49368 0-5.94909-1.44479-5.94909-5.21608v-69.45563c16.09442 0 24.07257 6.95831 24.07257 22.33033v6.52276h10.72961v-39.5827z" />
  <path fill="#231f20"
    d="M494.29271 409.2298h.28683l26.5372 81.63001h12.03628l27.69514-81.63001h.28683v65.97116c0 2.90018-2.3159 4.92924-6.23592 4.92924h-9.57166v10.72961h50.3123v-10.7296h-9.12548c-4.06875 0-6.23592-2.3159-6.23592-6.95832v-62.78414c0-3.47385 2.3159-4.92925 5.65163-4.92925h9.70977v-10.7296h-43.77893l-22.0435 62.78414h-.29746l-19.56825-62.78415H464.4304v10.72961h9.12548c3.33574 0 5.66226 1.4554 5.66226 4.92925v64.8132c0 3.48447-1.60413 4.92925-6.23592 4.92925h-8.55182v10.72961h45.37244v-10.7296h-8.98738c-3.0489 0-6.52275-1.44479-6.52275-4.92925z" />
</svg>