<svg width="822.76" height="450" version="1.1" viewBox="0 0 822.76 450" xmlns="http://www.w3.org/2000/svg"><path d="m711.4 450 111.36-219.52-114.02-230.4-499.63-0.065844-57.039 108.41 551.22 0.0702 59.726 119.26-111.36 222.24zm-505.02-284.65-9e-3 51.494 24.438 4e-3c13.58-2.7084 16.294-10.838 16.294-13.551 2.7178-8.1295 2.7178-13.551 2.7222-18.972-2.7178-8.1295-5.4312-13.551-16.294-18.976zm-76.028-32.536 116.76 0.0132c38.014 9e-3 59.735 27.115 59.73 54.216-9e-3 46.078-32.592 56.916-54.317 56.911l-46.163-4e-3 -4e-3 40.656c0 2.7084 2.7178 5.4168 8.1446 5.4212h21.725l-4e-3 27.106-105.9-0.0176 4e-3 -27.101 16.289 4e-3c2.7178 0 8.149-2.7084 8.149-5.4212l0.0132-121.97-24.438-4e-3zm480.62 29.876-9e-3 51.499 27.156 4e-3c13.576 0 13.576-8.1295 16.294-13.551 2.7178-8.1295 2.7178-10.842 0-18.972-2.7134-8.1339-2.7134-13.555-16.289-18.976zm-76.028-29.823 116.76 0.0176c38.019 4e-3 59.739 27.11 59.735 51.503-9e-3 48.786-32.596 56.911-51.603 56.911l-48.877-9e-3 -4e-3 40.656c2.7178 2.7084 5.4312 5.4212 10.862 5.4212l19.007 4e-3 -4e-3 27.101-105.9-0.0132v-27.101h19.007c2.7178 0 5.4356 0 8.149-5.4168l0.0176-119.26-27.156-4e-3zm-228.09-0.0307 100.47 0.0132-4e-3 27.106-13.576-4e-3c-5.4312 0-10.862 2.7084-10.862 5.4212l-9e-3 54.207 51.603-54.198c2.7134-2.7128 0-5.4212-2.7178-5.4212l-10.862-4e-3 4e-3 -27.101 89.609 9e-3 -4e-3 27.106-27.152-4e-3 -40.736 40.652 54.299 78.605c2.7134 2.7128 5.4268 8.1339 13.571 8.1339h10.862l-4e-3 27.106-100.47-0.0132 4e-3 -27.106 10.862 4e-3c5.4268 0 5.4312-5.4212 2.7134-5.4212l-27.147-43.369-24.443 24.389-4e-3 18.972s0 5.4212 10.862 5.4212l13.576 4e-3 -4e-3 27.101-95.035-0.0132 4e-3 -27.101h10.862c2.7134 0 10.858 4e-3 10.858-5.4168l0.0176-116.55c-2.7178-2.7084-2.7134-5.4212-10.862-5.4212h-16.29zm-195.49-132.83-111.36 222.24 114.02 227.68 502.35 0.06585 54.321-108.41-551.22-0.07462-59.721-116.55 111.36-224.95z" fill="#013765"/></svg>
