<svg xmlns="http://www.w3.org/2000/svg" xml:space="preserve" width="400" height="400" viewBox="0 0 400 400"><g fill="#2b4b7e"><path d="M17.288 60.778h87.864c15.331 1.948 30.423 6.992 43.076 16.003 11.871 8.266 20.592 19.972 31.26 29.623-11.306-3.861-23.049-6.572-35.028-6.665-29.147-.728-58.333.255-87.481-.218-2.13-.928-3.642-2.804-5.298-4.37-11.344-11.579-22.959-22.903-34.393-34.373m262.68 0h14.4c33.282 2.731 63.796 26.381 73.938 58.315 7.683 22.759 4.951 48.773-7.266 69.457-14.529 24.942-42.256 41.748-71.206 42.293-19.917.747-39.854-6.046-55.529-18.244-6.716-5.461-12.307-12.616-20.536-15.93-8.539-4.316-18.261-5.007-27.674-5.025-12.616.037-25.253 0-37.869.037-13-12.872-25.907-25.799-38.889-38.688 20.082-.237 40.181.216 60.281.072 11.033.218 22.157-.728 33.098 1.056 18.936 2.767 36.65 12.034 50.233 25.452 8.431 8.23 19.681 13.528 31.515 14.183 24.344 1.931 47.921-17.532 50.596-41.82 4.151-25.96-17.077-52.068-43.149-54.016-20.281-2.349-41.11 9.958-48.919 28.802-4.352 9.395-4.516 20.081-2.934 30.149-11.486-11.779-23.084-23.43-34.719-35.064 9.377-33.191 40.455-57.989 74.629-61.029m-.237 44.915c20.827-4.314 43.15 10.377 47.318 31.225 2.932 12.925-.928 27.017-10.031 36.629-12.145 13.382-33.828 16.732-49.486 7.774-13.325-6.992-21.719-22.03-21.027-36.994.291-18.552 14.928-35.557 33.226-38.634m-215.96 1.129c25.599-.091 51.196-.019 76.812-.037 26.017-.601 52.143 10.578 69.512 30.022 4.861 5.59 10.341 10.595 15.457 15.948-13.182-4.97-27.273-7.045-41.328-6.954-27.273-.055-54.546-.201-81.819.073-12.836-13.053-26.144-25.688-38.634-39.052M133.128 271.548v-20.93H94.773l8.526-11.16H86.142l-8.526 11.16-8.526-11.16H51.933l8.526 11.16H22.254v22.61h69.402l-69.402 45.07v.07h-.001v20.85h110.875v-22.6H63.724zM227.628 283.618h-60.109a5.198 5.198 0 1 1 0-10.396h80.131v-22.603h-80.129c-15.354 0-27.804 12.447-27.804 27.801s12.45 27.801 27.804 27.801h60.109c2.871 0 5.197 2.327 5.197 5.198s-2.326 5.198-5.197 5.198h-80.132v22.603h80.129c15.354 0 27.804-12.447 27.804-27.801.001-15.354-12.448-27.801-27.803-27.801M346.318 339.218h36.392l-46.137-35.33h11.953v-.099q1.139.098 2.304.099c14.71 0 26.635-11.925 26.635-26.635s-11.925-26.636-26.635-26.636c-.776 0-1.544.037-2.304.103v-.103h-85.268v88.601h22.602v-35.33h16.706zM285.86 273.22h64.97a5.198 5.198 0 1 1 0 10.396h-64.97z"/></g></svg>