<svg xmlns="http://www.w3.org/2000/svg" viewBox="0 0 710 710">
  <defs>
    <clipPath id="a">
      <path d="M54 355h602v155H54z" />
    </clipPath>
  </defs>
  <path fill="#2b5796" d="M0 0h710v710H0z" />
  <g fill="#fff">
    <path d="M57 280h596v60H57z" />
    <rect width="602" height="165" x="54" y="355" clip-path="url(#a)" rx="50" ry="50" />
    <path d="M155 339h35v17h-35zM520 339h35v17h-35z" />
  </g>
  <g fill="none" stroke="#2b5796" stroke-width="8">
    <path d="M50 409h620M50 466h620M172 409v57M294 409v57M416 409v57M538 409v57" />
  </g>
  <path fill="#fff"
    d="M72.00252 257.5411c-5.3306-1.50592-12.88299-7.73006-12.88299-10.61806 0-1.0212 2.59992-1.942 6.3204-2.23767 4.83931-.38537 6.68679.08418 7.88497 2.00307 2.11934 3.39377 12.69738 3.5083 13.98561.15145 1.06606-2.77828-2.99908-6.2307-7.35056-6.24242-5.30714-.01587-13.81311-2.98494-16.63901-5.81084-3.40722-3.40722-3.61905-10.94099-.43573-15.48567 4.81585-6.8755 17.44492-9.2667 27.26776-5.16223 9.72866 4.06479 11.71724 9.90115 3.8747 11.37258-4.17381.7828-5.70492.39916-7.9288-1.9879-3.22333-3.46-8.69917-3.86503-11.21836-.82937-2.13486 2.57232-.92115 6.45978 2.01687 6.45978 6.23726 0 17.44079 3.59627 20.3895 6.54534 7.36748 7.36712 2.72205 18.70382-8.9976 21.95786-6.5381 1.8154-9.52372 1.79435-16.28676-.11591zm52.21851.34294c-10.89096-2.612-16.43545-10.45006-16.42648-23.22092.0062-10.17819 3.76498-16.25743 12.41482-20.08348 11.36464-5.02734 23.63285-1.72018 29.05383 7.83253 2.55749 4.50605 1.86335 5.34129-5.21157 6.27314-4.73961.6241-5.68111.26668-6.9176-2.62545-2.22938-5.21433-9.53303-5.32473-13.57402-.20562-6.23311 7.89601-1.47625 23.33959 7.18876 23.33959 2.67445 0 6.42494-2.98252 7.3899-5.87673.77902-2.33703 12.59423-.16594 12.59423 2.31392 0 3.61525-6.99591 10.21855-12.60664 11.89973-6.17033 1.84852-7.52652 1.88302-13.90523.35329zm177.50078.06175c-11.01137-2.7976-16.43166-10.52595-16.43166-23.4286 0-13.28871 9.1042-22.53644 22.18729-22.53644 8.62155 0 15.22105 3.9637 18.96707 11.39259 1.77123 3.51279 3.22057 8.18306 3.22057 10.37795v3.9913h-15.7458c-14.79188 0-15.74615.17354-15.74615 2.86281 0 4.06272 5.04322 8.58877 9.56996 8.58877 2.1145 0 5.28505-1.35343 7.04594-3.0077 2.63821-2.47849 4.22935-2.83384 9.04486-2.02032l5.84327.98739-2.34704 3.97336c-4.357 7.37575-15.7903 11.3129-25.60832 8.81889zm15.06028-29.28601c0-3.10673-5.31231-7.0211-9.52855-7.0211-3.6401 0-9.0804 4.59747-9.0804 7.67349 0 .70035 4.18691 1.27305 9.3043 1.27305 6.83997 0 9.30465-.51025 9.30465-1.92544zm43.65906 29.54338c-1.5732-.38847-4.3125-2.0424-6.08235-3.67563l-3.22161-2.96941v3.11224c0 2.73447-.78211 3.11259-6.44184 3.11259h-6.4415v-61.55283h12.88334v21.37551l5.07426-2.9946c13.34805-7.87531 27.85185 3.21747 27.8484 21.29616-.00345 14.63352-11.33325 25.3261-23.6187 22.29597zm4.9887-10.42935c5.89605-3.15537 6.9897-17.37627 1.7871-23.27232-3.06015-3.47173-9.63585-3.15813-13.16175.6279-4.39047 4.71304-4.0672 15.88863.59685 20.5513 3.78465 3.78569 6.5964 4.33183 10.7778 2.09312zm43.65285 10.17198c-11.0124-2.7976-16.43235-10.52595-16.43235-23.4286 0-13.28871 9.10455-22.53644 22.18695-22.53644 8.62155 0 15.2214 3.9637 18.9681 11.39259 1.76985 3.51279 3.21885 8.18306 3.21885 10.37795v3.9913h-15.7458c-14.79015 0-15.7458.17354-15.7458 2.86281 0 4.06272 5.0439 8.58877 9.5703 8.58877 2.11485 0 5.2854-1.35343 7.0449-3.0077 2.63925-2.47849 4.2297-2.83384 9.0459-2.02032l5.8443.98739-2.34945 3.97336c-4.35735 7.37575-15.79065 11.3129-25.6059 8.81889zm15.05925-29.28601c0-3.10673-5.313-7.0211-9.5289-7.0211-3.63975 0-9.0804 4.59747-9.0804 7.67349 0 .70035 4.1883 1.27305 9.30465 1.27305 6.8379 0 9.30465-.51025 9.30465-1.92544zm43.65975 29.54338c-1.57665-.38847-4.3125-2.0424-6.0858-3.67563l-3.21885-2.96941v3.11224c0 2.73447-.78315 3.11259-6.44115 3.11259h-6.44115v-61.55283h12.8823v21.37551l5.07495-2.9946c13.34805-7.87531 27.85185 3.21747 27.84495 21.29616-.00345 14.63352-11.3298 25.3261-23.61525 22.29597zm4.9887-10.42935c5.89605-3.15537 6.98625-17.37627 1.7871-23.27232-3.0636-3.47173-9.63585-3.15813-13.16175.6279-4.39185 4.71304-4.06755 15.88863.5934 20.5513 3.7881 3.78569 6.59985 4.33183 10.78125 2.09312zm33.41325 9.40194c-7.89705-3.51934-9.9843-11.7545-4.6851-18.48993 3.05325-3.88435 8.7354-5.9585 20.3205-7.41888 5.175-.6524 6.79995-1.45142 6.79995-3.34615 0-6.259-10.8675-8.43732-14.53485-2.91353-1.75605 2.64373-2.7324 2.86212-8.00745 1.78952-5.7684-1.173-5.93745-1.35896-4.26075-4.66233 6.6723-13.11345 32.32305-13.55747 37.7154-.65309 1.2696 3.03876 1.96995 10.33758 1.96995 20.50956v15.79203h-6.44115c-5.52 0-6.44115-.41607-6.44115-2.90594 0-2.9011-.0069-2.90144-3.93645-.07727-5.37855 3.86469-12.96855 4.83931-18.4989 2.37566zm19.93065-11.12763c1.37655-1.59321 2.5047-4.09791 2.5047-5.56554 0-2.21524-.79005-2.53713-4.65405-1.8944-9.51855 1.58425-10.79505 2.04172-11.6058 4.15208-2.8497 7.42578 7.9488 10.0226 13.75515 3.30786zm-365.38122-19.04158v-30.77642h12.88299v11.45159c0 11.40259.01242 11.4395 2.82659 8.625 6.19723-6.1969 17.6847-5.43962 23.56936 1.55388 3.50175 4.16138 3.66494 5.1467 3.66494 22.13864v17.78337h-12.63011l-.48438-15.67783c-.26668-8.62293-1.1285-16.28055-1.91578-17.01678-3.61802-3.38272-7.83495-3.2599-11.42813.33258-3.37065 3.371-3.60249 4.52709-3.60249 17.98243v14.3796h-12.88299zm59.33897 18.25084c-2.10002-6.88896-5.02942-16.39026-6.50981-21.114-1.48005-4.72374-2.69962-9.07178-2.70963-9.66242-.00932-.59029 2.85522-1.07329 6.36801-1.07329 7.16565 0 6.072-1.93027 11.64651 20.55476 1.46487 5.90881 2.84142 9.04382 3.4569 7.8729.5627-1.0702 2.47124-7.9043 4.24143-15.1869l3.21816-13.24076h12.04636l3.37928 14.3144c1.85851 7.87324 3.83502 14.31473 4.39254 14.31473.55718 0 2.45778-5.95849 4.22349-13.2411 1.76571-7.2826 3.68253-13.7655 4.26006-14.4065.57719-.64101 3.64838-.9629 6.82445-.71553l5.7746.44953-6.70921 21.47177-6.70887 21.4721-6.6823.43367-6.68196.43401-2.15211-7.59103c-1.1837-4.1752-2.91215-10.70432-3.84054-14.50932-2.07104-8.48493-2.97252-7.2933-7.0901 9.37054l-3.10776 12.57801h-13.82104zm331.44805-18.25084v-30.77642H564.42585v11.45159c0 11.40259.01035 11.4395 2.82555 8.625 6.1962-6.1969 17.6847-5.43962 23.5704 1.55388 3.50175 4.16138 3.6639 5.1467 3.6639 22.13864v17.78337h-12.63045l-.48645-15.67783c-.26565-8.62293-1.12815-16.28055-1.91475-17.01678-3.6156-3.38272-7.83495-3.2599-11.4264.33258-3.37065 3.371-3.6018 4.52709-3.6018 17.98243v14.3796H551.5401zm54.39615 8.58877v-22.18764h6.44115c5.48895 0 6.44115.424 6.44115 2.86281 0 2.85039.01035 2.85074 2.829.0376 6.1962-6.19688 17.6847-5.43961 23.56695 1.55389 3.50175 4.16138 3.66735 5.1467 3.66735 22.13864V257.784H636.2514l-.48645-15.67784c-.26565-8.62328-1.12815-16.28055-1.91475-17.01678-3.61905-3.38272-7.83495-3.2599-11.4264.33258-3.3741 3.371-3.60525 4.52709-3.60525 17.98243v14.3796h-12.8823z" />
</svg>