<svg xmlns="http://www.w3.org/2000/svg" width="180" height="180" viewBox="-1.04 -1.04 38.567 38.471"><path fill="#00295b" d="M25.577 24.311c0-.929-.259-1.16-1.17-1.16h-8.181V9.287c0-.923-.256-1.155-1.163-1.155h-2.876c-.904 0-1.165.233-1.165 1.155v17.748c0 .926.261 1.164 1.165 1.164h12.22c.911 0 1.17-.238 1.17-1.164zm10.005-6.117c0 8.925-.699 13.8-3.115 15.95-1.397 1.25-3.59 1.39-5.995 1.39H10.016c-2.406 0-4.593-.14-5.994-1.39-2.419-2.15-3.117-7.025-3.117-15.95 0-8.803.668-13.674 3.02-15.862C5.334 1.015 7.556.855 10.016.855h16.457c2.465 0 4.684.16 6.094 1.477 2.347 2.188 3.016 7.06 3.016 15.862"/></svg>