<?xml version="1.0" encoding="UTF-8" standalone="no"?>
<!-- Created with Inkscape (http://www.inkscape.org/) -->
<svg xmlns:dc="http://purl.org/dc/elements/1.1/" xmlns:cc="http://creativecommons.org/ns#" xmlns:rdf="http://www.w3.org/1999/02/22-rdf-syntax-ns#" xmlns:svg="http://www.w3.org/2000/svg" xmlns="http://www.w3.org/2000/svg" xmlns:sodipodi="http://sodipodi.sourceforge.net/DTD/sodipodi-0.dtd" xmlns:inkscape="http://www.inkscape.org/namespaces/inkscape" width="173.56" height="89.990257" viewBox="0 0 173.56 89.990258" id="svg12894" version="1.1" inkscape:version="0.91 r13725" sodipodi:docname="hong kong airport.svg">
  <defs id="defs12896"/>
  <sodipodi:namedview id="base" pagecolor="#ffffff" bordercolor="#666666" borderopacity="1.0" inkscape:pageopacity="0.0" inkscape:pageshadow="2" inkscape:zoom="5.2445526" inkscape:cx="86.28" inkscape:cy="44.495127" inkscape:document-units="px" inkscape:current-layer="layer1" showgrid="false" fit-margin-top="0" fit-margin-left="0" fit-margin-right="0" fit-margin-bottom="0" units="px" inkscape:window-width="1280" inkscape:window-height="744" inkscape:window-x="-4" inkscape:window-y="-4" inkscape:window-maximized="1"/>
  <metadata id="metadata12899">
    <rdf:RDF>
      <cc:Work rdf:about="">
        <dc:format>image/svg+xml</dc:format>
        <dc:type rdf:resource="http://purl.org/dc/dcmitype/StillImage"/>
        <dc:title/>
      </cc:Work>
    </rdf:RDF>
  </metadata>
  <g inkscape:label="Layer 1" inkscape:groupmode="layer" id="layer1" transform="translate(1277.7086,-735.43851)">
    <g id="g13234" transform="translate(-1280.1206,730.05177)">
      <path id="path13136" d="m 126.562,47.329 c -1.13,0.476 -2.14,1.033 -3.05,1.635 1.49,-2.444 2.78,-5.295 3.39,-8.475 0.66,-3.417 0.591,-9.2 -6.489,-9.2 -4.801,0 -10.271,3.333 -13.53,5.647 2.2,-3.195 4.09,-6.506 5.36,-9.781 3.42,-8.825 3.439,-20.462 -10.91,-21.217 C 63.941,3.969 2.912,59.385 2.912,59.385 l 32.229,0 c 29.95,-25.228 56.91,-39.428 63.47,-32.634 4.23,4.378 -1.34,17.101 -13.38,33.111 16.71,-14.607 28.98,-20.474 32.931,-16.328 2.31,2.421 0.18,9.813 -4.53,16.311 1.36,-1.178 2.93,-2.543 5.3,-3.903 4.29,-2.463 10.02,-4.579 12.4,-2.511 1.449,1.267 1.35,3.789 0.439,6.629 1.4,-1.62 3.2,-4.213 3.88,-7.439 1.21,-5.763 -2.54,-8.074 -9.089,-5.292" inkscape:connector-curvature="0" style="fill:#96d2c3"/>
      <rect id="rect13138" height="27.035999" width="0.49000001" y="67.740997" x="84.842003" style="fill:#010101"/>
      <path id="path13140" d="m 53.642,68.494 0,0.814 c 0.33,-0.007 1.931,-0.039 4.351,-0.18 l 0.08,-0.005 0,1.289 -5.45,0 0,0.815 4.51,0 -0.22,0.136 c -0.96,0.586 -2.521,1.468 -4.55,2.35 l 0,0.887 c 2.739,-1.16 4.68,-2.332 5.59,-2.932 l 0.12,-0.075 0,2.923 -4.021,0 c -0.22,0 -0.41,0.183 -0.41,0.407 l 0,4.601 c 0,0.225 0.19,0.406 0.41,0.406 l 8.84,0 c 0.23,0 0.41,-0.182 0.41,-0.406 l 0,-4.601 c 0,-0.225 -0.18,-0.407 -0.41,-0.407 l -4.01,0 0,-2.912 0.11,0.073 c 0.92,0.599 2.859,1.769 5.6,2.929 l 0,-0.883 c -2.04,-0.884 -3.609,-1.77 -4.56,-2.358 l -0.23,-0.136 4.53,0 0,-0.815 -5.45,0 0,-1.339 0.07,-0.006 c 1.399,-0.09 2.8,-0.201 4.149,-0.329 l 0,-0.82 c -4.919,0.469 -8.788,0.56 -9.459,0.574 m 0.82,6.836 8.03,0 0,1.484 -8.03,0 0,-1.484 z m 0,2.3 8.03,0 0,1.487 -8.03,0 0,-1.487 z" inkscape:connector-curvature="0" style="fill:#010101"/>
      <path id="path13142" d="m 23.982,86.986 c -0.23,0 -0.41,0.184 -0.41,0.408 l 0,2.573 c 0,0.226 0.18,0.407 0.41,0.407 l 3.13,0 c 0.229,0 0.409,-0.182 0.409,-0.407 l 0,-2.573 c 0,-0.225 -0.18,-0.408 -0.409,-0.408 l -3.13,0 z m 0.41,0.816 2.32,0 0,1.759 -2.32,0 0,-1.759 z" inkscape:connector-curvature="0" style="fill:#010101"/>
      <path id="path13144" d="m 23.571,92.039 0,0.854 c 0.181,-0.057 3.82,-1.211 3.921,-1.242 l 0,-0.854 c -0.18,0.058 -3.82,1.211 -3.921,1.242" inkscape:connector-curvature="0" style="fill:#010101"/>
      <path id="path13146" d="m 22.222,83.174 c -0.23,0 -0.41,0.184 -0.41,0.406 l 0,10.723 c 0,0.223 0.18,0.404 0.41,0.404 l 10.29,0 c 0.22,0 0.41,-0.182 0.41,-0.404 l 0,-10.723 c 0,-0.223 -0.19,-0.406 -0.41,-0.406 l -10.29,0 z m 7.83,0.814 2.05,0 0,9.906 -9.48,0 0,-9.906 4.58,0 0.351,1.344 -3.98,0 0,0.813 4.181,0 1.109,4.279 -0.01,0.025 c -0.37,0.654 -0.78,1.182 -1.21,1.57 l 0,1.098 c 0.51,-0.332 1,-0.791 1.43,-1.395 l 0.101,-0.125 0.069,0.285 c 0.21,0.725 0.83,1.264 1.46,1.264 l 0.471,0 0,-0.883 -0.471,0 c -0.199,0 -0.51,-0.268 -0.609,-0.613 0,-0.002 -0.29,-1.117 -0.29,-1.117 l 0.02,-0.025 c 0.721,-1.404 1.101,-2.875 1.24,-3.521 l -0.91,0 c -0.109,0.482 -0.31,1.199 -0.609,1.984 l -0.091,0.213 -0.779,-3.039 2.479,0 0,-0.813 -0.53,0 -0.572,-1.344 z m -1.941,0 0.99,0 0.561,1.344 -1.2,0 -0.351,-1.344 z" inkscape:connector-curvature="0" style="fill:#010101"/>
      <path id="path13148" d="m 57.662,83.16 c -0.041,0.059 -1.24,1.711 -1.24,1.711 -0.051,0.07 -0.08,0.154 -0.08,0.238 0,0.064 0.02,0.127 0.05,0.184 0.07,0.139 0.2,0.225 0.36,0.225 l 1.119,0 -1.77,2.316 -1.17,-1.631 1.11,0 0,-0.814 -1.181,0 0,-2.229 -0.81,0 0,2.229 -1.26,0 0,0.814 0.92,0 -0.03,0.094 c -0.21,0.785 -0.77,2.787 -1.57,4.625 l 0.891,0 c 0.31,-0.752 0.619,-1.586 0.899,-2.486 l 0.15,0.021 0,6.258 0.81,0 0,-7.205 c 0,0 0.91,1.262 0.98,1.369 0.1,-0.07 0.62,-0.438 0.62,-0.438 l 2.609,0 c 0.221,0 0.4,-0.182 0.4,-0.406 l 0,-1.217 -0.81,0 0,0.811 -1.381,0 1.74,-2.273 c 0.05,-0.07 0.08,-0.156 0.08,-0.246 l -0.04,-0.18 c -0.07,-0.141 -0.21,-0.227 -0.36,-0.227 l -1.149,0 c 0,0 0.99,-1.367 1.11,-1.543 l -0.997,0 z" inkscape:connector-curvature="0" style="fill:#010101"/>
      <path id="path13150" d="m 59.132,82.758 c 0.04,0.176 1.53,6.506 1.53,6.506 l -4.641,0 0,0.814 1.29,0 -0.49,2.695 c -0.189,0.924 -0.579,1.098 -0.949,1.113 l 0,0.814 c 0.649,-0.023 1.449,-0.354 1.75,-1.76 l 0.21,-1.084 0.09,0.08 c 0.41,0.34 0.92,0.662 1.52,0.957 0.051,-0.107 0.311,-0.629 0.36,-0.73 -1.15,-0.564 -1.63,-1.082 -1.78,-1.279 l -0.02,-0.025 0.14,-0.781 2.72,0 0.011,0.057 c 0.27,1.041 0.46,1.723 0.649,2.275 l 0.01,0.049 -0.039,0.031 c -0.66,0.543 -1.431,0.986 -2.291,1.324 l 0,0.865 c 0.961,-0.344 1.83,-0.801 2.58,-1.373 l 0.07,-0.055 0.04,0.08 c 0.47,0.977 1.06,1.375 2.03,1.375 l 0.54,0 0,-0.814 -0.54,0 c -0.63,0 -1,-0.174 -1.41,-1.152 l -0.02,-0.047 0.039,-0.035 c 0.87,-0.848 1.28,-1.639 1.431,-1.973 l -0.91,0 c -0.15,0.258 -0.39,0.639 -0.771,1.064 l -0.09,0.1 -0.49,-1.771 0.091,0 2.67,0 0,-0.814 -1.12,0 -0.19,-0.809 0.9,0 c 0.229,0 0.41,-0.182 0.41,-0.406 l 0,-1.215 -0.82,0 0,0.809 -1.38,0 1.74,-2.271 c 0.06,-0.07 0.09,-0.158 0.09,-0.248 l -0.04,-0.18 c -0.07,-0.141 -0.21,-0.227 -0.37,-0.227 l -1.15,0 c 0,0 0.99,-1.357 1.131,-1.557 l -1.011,0 c -0.04,0.059 -1.25,1.725 -1.25,1.725 -0.05,0.072 -0.069,0.156 -0.069,0.24 0,0.063 0.01,0.125 0.04,0.184 0.069,0.137 0.21,0.221 0.359,0.221 l 1.13,0 -1.71,2.232 c 0,0 -1.159,-4.893 -1.18,-5.004 l -0.84,0 z m 2.18,5.693 0.13,0.004 0.88,0 0.19,0.809 -1.01,0 -0.19,-0.813 z" inkscape:connector-curvature="0" style="fill:#010101"/>
      <path id="path13152" d="m 37.352,83.174 c -0.1,0 -0.21,0.043 -0.29,0.119 -0.07,0.078 -0.11,0.18 -0.11,0.287 l 0,11.135 0.811,0 0,-3.033 0.82,0 c 0.72,0 1.239,-0.211 1.539,-0.627 0.171,-0.24 0.25,-0.537 0.25,-0.885 0,-0.316 -0.069,-0.678 -0.209,-1.072 -0.181,-0.514 -0.811,-1.705 -1,-2.059 l -0.011,-0.027 1,-3.313 c 0,0.002 0.011,-0.119 0.011,-0.119 0,-0.088 -0.021,-0.172 -0.08,-0.242 -0.07,-0.104 -0.19,-0.164 -0.32,-0.164 l -2.411,0 z m 0.41,0.814 1.45,0 -0.891,2.949 -0.02,0.115 c 0,0.068 0.02,0.137 0.05,0.195 0.3,0.551 0.9,1.703 1.04,2.119 0.11,0.313 0.17,0.58 0.17,0.799 0,0.174 -0.04,0.314 -0.11,0.416 -0.13,0.189 -0.43,0.285 -0.869,0.285 l -0.82,0 0,-6.878 z" inkscape:connector-curvature="0" style="fill:#010101"/>
      <path id="path13154" d="m 42.292,88.828 5.319,0 0,-0.814 -5.319,0 0,0.814 z m -1.33,1.279 0,0.814 3.6,0 0,1.846 c 0,0.828 -0.13,1.123 -0.83,1.123 l -0.439,0 0,0.814 0.439,0 c 1.64,0 1.64,-1.357 1.64,-1.938 l 0,-1.846 3.57,0 0,-0.814 -7.98,0 z m 5.85,1.573 c 0.31,0.723 0.94,2.082 1.46,3.039 l 0.93,0 c -0.43,-0.752 -1.109,-2.152 -1.5,-3.039 l -0.89,0 z m -5.14,0 c -0.4,0.908 -1.07,2.287 -1.51,3.039 l 0.939,0 c 0.51,-0.949 1.15,-2.311 1.45,-3.039 l -0.879,0 z" inkscape:connector-curvature="0" style="fill:#010101"/>
      <path id="path13156" d="m 42.312,82.758 c -0.479,0.842 -1.63,2.299 -2.58,3.139 0.08,0.084 0.46,0.523 0.54,0.613 0.08,-0.08 0.46,-0.434 0.46,-0.434 l 0.05,0.029 c 0.221,0.141 0.78,0.504 1.21,0.838 l 0.061,0.051 -0.05,0.059 c -0.33,0.332 -0.681,0.658 -1.04,0.973 l 0,1.059 c 2.05,-1.66 3.17,-3.164 3.739,-4.143 l 0.061,-0.1 0.07,0.098 c 0.33,0.498 1.6,2.252 4.109,4.127 l 0,-1.025 C 48.413,87.618 47.892,87.167 47.413,86.7 l -0.051,-0.049 0.04,-0.051 c 0.61,-0.746 1.15,-1.775 1.54,-2.98 0,-0.014 0.08,-0.299 0.12,-0.445 l -3.05,0 0,0.814 1.93,0 -0.05,0.104 c -0.21,0.523 -0.57,1.281 -1.05,1.904 L 46.792,86.063 46.731,86 c -0.83,-0.898 -1.33,-1.625 -1.52,-2.004 l -0.011,-0.029 0.101,-0.27 c 0,0 0.11,-0.389 0.149,-0.523 l -2.43,0 c 0,0 0.15,-0.301 0.2,-0.416 l -0.908,0 z m 0.25,3.596 c -0.38,-0.299 -0.86,-0.621 -1.19,-0.836 l -0.069,-0.045 0.51,-0.605 0.05,0.035 c 0.28,0.176 0.801,0.52 1.21,0.834 l 0.061,0.047 -0.521,0.615 -0.051,-0.045 z m 0.99,-1.274 c -0.39,-0.299 -0.851,-0.607 -1.17,-0.816 l -0.07,-0.043 0.17,-0.23 0.04,-0.002 1.771,0 -0.051,0.107 c -0.159,0.309 -0.359,0.635 -0.579,0.967 l -0.051,0.064 -0.06,-0.047 z" inkscape:connector-curvature="0" style="fill:#010101"/>
      <path id="path13158" d="m 72.271,83.164 c -0.22,0 -0.409,0.184 -0.409,0.408 l 0,3.592 c 0,0.225 0.189,0.408 0.409,0.408 l 6.131,0 c 0.22,0 0.399,-0.184 0.399,-0.408 l 0,-3.592 c 0,-0.225 -0.18,-0.408 -0.399,-0.408 l -6.131,0 z m 0.411,0.813 5.311,0 0,0.982 -5.311,0 0,-0.982 z m 0,1.798 5.311,0 0,0.98 -5.311,0 0,-0.98 z" inkscape:connector-curvature="0" style="fill:#010101"/>
      <path id="path13160" d="m 68.762,83.137 0,1.781 -1.3,0 0,0.887 1.3,0 0,4.916 c 0,0 -1.26,0.766 -1.29,0.787 l 0,1.037 c 0.1,-0.064 3.45,-2.094 3.479,-2.115 l 0,-1.039 c -0.1,0.063 -1.3,0.791 -1.3,0.791 l 0,-4.377 1.3,0 0,-0.887 -1.3,0 0,-1.781 -0.889,0 z" inkscape:connector-curvature="0" style="fill:#010101"/>
      <path id="path13162" d="m 71.342,88.369 0,0.814 0.97,0 -0.05,0.105 c -0.37,0.764 -1.07,1.957 -2.21,3.342 l 1.13,0 c 0.43,-0.553 0.82,-1.117 1.17,-1.682 l 0.021,-0.035 1.46,0 -0.061,0.107 c -0.529,1.002 -1.59,2.662 -2.45,3.697 l 1.12,0 c 0.931,-1.232 1.95,-2.877 2.351,-3.762 l 0.01,-0.043 1.6,0 -0.05,0.104 c -0.45,1.002 -1.35,2.627 -2.12,3.701 l 1.07,0 c 0.8,-1.227 1.67,-2.834 2.04,-3.758 l 0.02,-0.047 1.271,0 0,2.221 c 0,0.506 -0.33,0.762 -0.99,0.762 l -0.49,0 0,0.814 0.49,0 c 1.11,0 1.8,-0.604 1.8,-1.576 l 0,-2.627 c 0,-0.225 -0.18,-0.408 -0.399,-0.408 l -6.2,0 0.439,-0.914 0.051,-0.002 6.439,0 0,-0.814 -8.432,0 z" inkscape:connector-curvature="0" style="fill:#010101"/>
      <path id="path13164" d="m 69.121,75.103 c -0.26,0.888 -0.909,3.008 -1.659,4.829 l 0.88,0 c 0.82,-2.065 1.479,-4.34 1.62,-4.829 l -0.841,0 z" inkscape:connector-curvature="0" style="fill:#010101"/>
      <path id="path13166" d="m 67.812,72.051 c 0.64,0.596 1.51,1.45 2.23,2.256 l 0,-1.207 c -0.91,-0.953 -1.86,-1.825 -2.23,-2.156 l 0,1.107 z" inkscape:connector-curvature="0" style="fill:#010101"/>
      <path id="path13168" d="m 76.521,67.98 0,1.375 -2.51,0 0,-1.375 -0.819,0 0,1.375 -2.15,0 0,0.816 2.15,0 0,1.73 -2.71,0 0,0.815 2.439,0 -0.08,0.114 c -0.43,0.643 -1.18,1.643 -2.33,2.766 l 0,1.11 c 0.54,-0.491 1.061,-1.005 1.53,-1.534 l 0.13,-0.142 0,3.241 c 0,0.459 0.15,0.854 0.45,1.141 0.55,0.539 1.38,0.518 1.41,0.516 l 4.67,0 c 0.229,0 0.41,-0.182 0.41,-0.406 l 0,-1.705 -0.811,0 0,1.299 -4.28,0 c -0.01,0 -0.539,0 -0.84,-0.289 -0.13,-0.133 -0.199,-0.314 -0.199,-0.555 l 0,-0.896 4.5,0 c 0.229,0 0.409,-0.184 0.409,-0.409 l 0,-2.487 0.13,0.155 c 0.601,0.718 1.271,1.412 2,2.07 l 0,-1.108 c -1.149,-1.121 -1.909,-2.123 -2.34,-2.766 l -0.069,-0.114 2.439,0 0,-0.815 -2.72,0 0,-1.73 2.16,0 0,-0.816 -2.16,0 0,-1.376 -0.809,0 z m -2.509,2.192 2.51,0 0,1.73 -2.51,0 0,-1.73 z m -1.02,3.851 c 0.46,-0.602 0.74,-1.055 0.859,-1.269 l 0.03,-0.037 2.771,0 0.02,0.037 c 0.13,0.214 0.41,0.666 0.86,1.269 l 0.09,0.117 -4.71,0 0.08,-0.117 z m -0.01,0.931 4.1,0 0,1.608 -4.1,0 0,-1.608 z" inkscape:connector-curvature="0" style="fill:#010101"/>
      <path id="path13170" d="m 67.812,69.23 c 0.63,0.591 1.5,1.441 2.23,2.257 l 0,-1.209 c -0.91,-0.951 -1.86,-1.824 -2.23,-2.155 l 0,1.107 z" inkscape:connector-curvature="0" style="fill:#010101"/>
      <polygon id="polygon13172" points="95.552,70.114 95.552,67.883 96.651,67.883 96.651,73.516 95.552,73.516 95.552,71.092 91.771,71.092 91.771,73.516 90.672,73.516 90.672,67.883 91.771,67.883 91.771,70.114 " style="fill:#010101"/>
      <path id="path13174" d="m 101.441,67.743 c 2.48,0 3.36,1.456 3.36,2.998 0,1.171 -0.69,2.915 -3.36,2.915 -2.66,0 -3.35,-1.744 -3.35,-2.915 0.001,-1.542 0.871,-2.998 3.35,-2.998 m 2.26,2.937 c 0,-1.356 -0.97,-1.991 -2.26,-1.991 -1.28,0 -2.25,0.635 -2.25,1.991 0,1.597 1.2,2.031 2.25,2.031 1.061,0 2.26,-0.435 2.26,-2.031" inkscape:connector-curvature="0" style="fill:#010101"/>
      <polygon id="polygon13176" points="112.222,73.516 111.212,73.516 107.292,69.301 107.292,73.516 106.231,73.516 106.231,67.883 107.392,67.883 111.162,71.95 111.162,67.883 112.222,67.883 " style="fill:#010101"/>
      <path id="path13178" d="m 119.821,70.625 0,2.953 -0.659,0 -0.221,-0.581 c -0.43,0.279 -1.01,0.659 -2.109,0.659 -1.44,0 -3.181,-0.706 -3.181,-2.945 0,-1.503 0.9,-2.968 3.15,-2.968 1.3,0 2.71,0.479 2.99,1.897 l -1.13,0 c -0.131,-0.287 -0.431,-0.953 -1.73,-0.953 -1.76,0 -2.18,1.195 -2.18,1.977 0,1.333 0.899,2.016 2.09,2.016 1.09,0 1.689,-0.379 1.95,-1.17 l -1.971,0 0,-0.885 3.001,0 z" inkscape:connector-curvature="0" style="fill:#010101"/>
      <polygon id="polygon13180" points="128.852,67.883 130.422,67.883 127.731,70.114 130.691,73.516 129.252,73.516 126.932,70.764 125.731,71.764 125.731,73.516 124.632,73.516 124.632,67.883 125.731,67.883 125.731,70.51 " style="fill:#010101"/>
      <path id="path13182" d="m 134.602,67.743 c 2.47,0 3.35,1.456 3.35,2.998 0,1.171 -0.689,2.915 -3.35,2.915 -2.67,0 -3.36,-1.744 -3.36,-2.915 -10e-4,-1.542 0.879,-2.998 3.36,-2.998 m 2.25,2.937 c 0,-1.356 -0.97,-1.991 -2.25,-1.991 -1.29,0 -2.26,0.635 -2.26,1.991 0,1.597 1.199,2.031 2.26,2.031 1.049,0 2.25,-0.435 2.25,-2.031" inkscape:connector-curvature="0" style="fill:#010101"/>
      <polygon id="polygon13184" points="145.542,73.516 144.531,73.516 140.611,69.301 140.611,73.516 139.562,73.516 139.562,67.883 140.722,67.883 144.481,71.95 144.481,67.883 145.542,67.883 " style="fill:#010101"/>
      <path id="path13186" d="m 153.361,70.625 0,2.953 -0.67,0 -0.22,-0.581 c -0.42,0.279 -1.01,0.659 -2.1,0.659 -1.45,0 -3.19,-0.706 -3.19,-2.945 0,-1.503 0.91,-2.968 3.15,-2.968 1.3,0 2.72,0.479 2.989,1.897 l -1.12,0 c -0.14,-0.287 -0.439,-0.953 -1.729,-0.953 -1.771,0 -2.19,1.195 -2.19,1.977 0,1.333 0.9,2.016 2.091,2.016 1.09,0 1.689,-0.379 1.96,-1.17 l -1.98,0 0,-0.885 3.009,0 z" inkscape:connector-curvature="0" style="fill:#010101"/>
      <rect id="rect13188" height="5.6350002" width="1.1" y="78.491997" x="90.741997" style="fill:#010101"/>
      <polygon id="polygon13190" points="99.901,84.127 98.892,84.127 94.972,79.91 94.972,84.127 93.912,84.127 93.912,78.492 95.082,78.492 98.842,82.561 98.842,78.492 99.901,78.492 " style="fill:#010101"/>
      <polygon id="polygon13192" points="103.502,84.127 103.502,79.438 100.981,79.438 100.981,78.492 107.121,78.492 107.121,79.438 104.602,79.438 104.602,84.127 " style="fill:#010101"/>
      <polygon id="polygon13194" points="109.502,79.438 109.502,80.748 112.901,80.748 112.901,81.693 109.502,81.693 109.502,83.182 113.552,83.182 113.552,84.127 108.401,84.127 108.401,78.492 113.451,78.492 113.451,79.438 " style="fill:#010101"/>
      <path id="path13196" d="m 115.312,78.492 3.39,0 c 1.33,0 2.29,0.303 2.29,1.682 0,1.039 -0.739,1.611 -1.569,1.658 l 1.72,2.295 -1.35,0 -1.641,-2.217 -1.739,0 0,2.217 -1.101,0 0,-5.635 z m 3.219,2.504 c 0.9,0 1.36,-0.133 1.36,-0.799 0,-0.658 -0.46,-0.791 -1.36,-0.791 l -2.119,0 0,1.59 2.119,0 z" inkscape:connector-curvature="0" style="fill:#010101"/>
      <polygon id="polygon13198" points="128.852,84.127 127.852,84.127 123.922,79.91 123.922,84.127 122.872,84.127 122.872,78.492 124.031,78.492 127.802,82.561 127.802,78.492 128.852,78.492 " style="fill:#010101"/>
      <path id="path13200" d="m 132.821,78.492 1.261,0 2.729,5.635 -1.16,0 -0.59,-1.295 -3.25,0 -0.59,1.295 -1.17,0 2.77,-5.635 z m 1.811,3.395 -1.181,-2.512 -1.18,2.512 2.361,0 z" inkscape:connector-curvature="0" style="fill:#010101"/>
      <polygon id="polygon13202" points="139.012,84.127 139.012,79.438 136.502,79.438 136.502,78.492 142.642,78.492 142.642,79.438 140.121,79.438 140.121,84.127 " style="fill:#010101"/>
      <rect id="rect13204" height="5.6350002" width="1.1" y="78.491997" x="143.58099" style="fill:#010101"/>
      <path id="path13206" d="m 149.951,78.353 c 2.48,0 3.351,1.458 3.351,2.999 0,1.172 -0.681,2.914 -3.351,2.914 -2.67,0 -3.359,-1.742 -3.359,-2.914 0,-1.541 0.88,-2.999 3.359,-2.999 m 2.261,2.938 c 0,-1.357 -0.971,-1.992 -2.261,-1.992 -1.29,0 -2.26,0.635 -2.26,1.992 0,1.596 1.2,2.029 2.26,2.029 1.051,0 2.261,-0.433 2.261,-2.029" inkscape:connector-curvature="0" style="fill:#010101"/>
      <polygon id="polygon13208" points="160.932,84.127 159.922,84.127 156.002,79.91 156.002,84.127 154.951,84.127 154.951,78.492 156.111,78.492 159.882,82.561 159.882,78.492 160.932,78.492 " style="fill:#010101"/>
      <path id="path13210" d="m 165.102,78.492 1.26,0 2.73,5.635 -1.16,0 -0.59,-1.295 -3.24,0 -0.6,1.295 -1.17,0 2.77,-5.635 z m 1.81,3.395 -1.181,-2.512 -1.18,2.512 2.361,0 z" inkscape:connector-curvature="0" style="fill:#010101"/>
      <polygon id="polygon13212" points="175.472,83.15 175.472,84.127 170.292,84.127 170.292,78.492 171.392,78.492 171.392,83.15 " style="fill:#010101"/>
      <path id="path13214" d="m 92.842,89.104 1.26,0 2.73,5.633 -1.16,0 -0.59,-1.295 -3.25,0 -0.601,1.295 -1.17,0 2.781,-5.633 z m 1.809,3.392 -1.18,-2.51 -1.18,2.51 2.36,0 z" inkscape:connector-curvature="0" style="fill:#010101"/>
      <rect id="rect13216" height="5.6329999" width="1.11" y="89.103996" x="98.092003" style="fill:#010101"/>
      <path id="path13218" d="m 101.481,89.104 3.38,0 c 1.34,0 2.3,0.301 2.3,1.68 0,1.039 -0.75,1.613 -1.579,1.66 l 1.729,2.293 -1.35,0 -1.641,-2.217 -1.739,0 0,2.217 -1.101,0 0,-5.633 z m 3.22,2.501 c 0.9,0 1.36,-0.131 1.36,-0.799 0,-0.658 -0.46,-0.789 -1.36,-0.789 l -2.119,0 0,1.588 2.119,0 z" inkscape:connector-curvature="0" style="fill:#010101"/>
      <path id="path13220" d="m 108.832,89.104 3.14,0 c 0.95,0 2.52,0 2.52,1.727 0,1.721 -1.569,1.721 -2.52,1.721 l -2.04,0 0,2.186 -1.1,0 0,-5.634 z m 3.38,2.501 c 0.63,0 1.18,-0.055 1.18,-0.781 0,-0.723 -0.55,-0.775 -1.18,-0.775 l -2.28,0 0,1.557 2.28,0 z" inkscape:connector-curvature="0" style="fill:#010101"/>
      <path id="path13222" d="m 118.542,88.963 c 2.479,0 3.35,1.457 3.35,2.998 0,1.172 -0.69,2.916 -3.35,2.916 -2.671,0 -3.36,-1.744 -3.36,-2.916 0,-1.541 0.87,-2.998 3.36,-2.998 m 2.25,2.937 c 0,-1.355 -0.971,-1.992 -2.25,-1.992 -1.29,0 -2.261,0.637 -2.261,1.992 0,1.596 1.2,2.031 2.261,2.031 1.05,0.001 2.25,-0.435 2.25,-2.031" inkscape:connector-curvature="0" style="fill:#010101"/>
      <path id="path13224" d="m 123.321,89.104 3.391,0 c 1.33,0 2.3,0.301 2.3,1.68 0,1.039 -0.75,1.613 -1.58,1.66 l 1.73,2.293 -1.36,0 -1.63,-2.217 -1.74,0 0,2.217 -1.11,0 0,-5.633 z m 3.231,2.501 c 0.899,0 1.35,-0.131 1.35,-0.799 0,-0.658 -0.45,-0.789 -1.35,-0.789 l -2.12,0 0,1.588 2.12,0 z" inkscape:connector-curvature="0" style="fill:#010101"/>
      <polygon id="polygon13226" points="132.481,94.736 132.481,90.049 129.962,90.049 129.962,89.104 136.102,89.104 136.102,90.049 133.582,90.049 133.582,94.736 " style="fill:#010101"/>
    </g>
  </g>
</svg>