<svg xmlns="http://www.w3.org/2000/svg" viewBox="0 0 251.7 251.7"><path fill="#007549" d="M0 0h251.7v251.7H0z"/><path fill="#fff" d="M248.18 126c0-69.6-54.904-126-122.68-126C57.626 0 3.11 56.4 3.11 126c0 69.2 54.513 125.7 122.39 125.7 67.776 0 122.68-56.4 122.68-125.7"/><g fill="#007549"><path d="M113 105.8v7.4c0 1.2.8 2.3 1.9 2.3h21c1.2 0 1.9-1.2 1.9-2.3v-7.4c0-1.2-.8-1.9-1.9-1.9-3.5 0-7-.4-10.5-.4s-7 .4-10.5.4c-1.1 0-1.9.7-1.9 1.9m18.7 81.3c0 3.5-2.7 6.2-6.2 6.2s-6.2-2.7-6.2-6.2 2.7-6.6 6.2-6.6c3.4 0 6.2 3.1 6.2 6.6m29.5 12.8c0-1.2-1.2-1.9-2.3-1.9-10.5 3.5-21.8 5.1-33.4 5.1-11.7 0-22.9-1.6-33.4-5.1-1.2 0-2.3.8-2.3 1.9 0 .8.4 1.6 1.2 1.9 10.9 3.1 22.5 5.1 34.6 5.1s23.7-1.9 34.6-5.1c.6-.3 1-1.1 1-1.9M101.4 49.4c-3.1.4-5.8.8-8.9 1.6-1.6 0-2.7 1.6-2.7 3.1v24.5c0 1.9 1.6 3.5 3.9 3.1 2.7 0 5.8-.4 8.5-.8 1.9 0 3.1-1.6 3.1-3.5V52.5c0-1.9-1.6-3.5-3.9-3.1m39.2 2c0-1.6-1.2-3.1-3.1-3.1-3.9-.4-7.8-.8-12-.8-3.9 0-8.2.4-12 .8-1.9 0-3.1 1.6-3.1 3.1V77c0 1.9 1.6 3.5 3.5 3.1h23.4c1.9.4 3.5-1.2 3.5-3.1V51.4zm5 1.1v24.9c0 1.9 1.2 3.5 3.1 3.5 3.1.4 5.8.8 8.9.8 1.9.4 3.5-1.2 3.5-3.1V54.1c0-1.6-.8-3.1-2.7-3.1-2.7-.8-5.8-1.2-8.9-1.6-2.3-.4-3.9 1.2-3.9 3.1m-38.8 74.7H93.2c-1.9 0-3.5 1.6-3.5 3.5v24.9c0 1.9 1.2 3.1 3.1 3.5 4.3.4 9.3.8 14 .8 1.9 0 3.5-1.6 3.5-3.5v-25.7c0-1.9-1.6-3.5-3.5-3.5m33.8 3.5v25.7c0 1.9 1.6 3.5 3.5 3.5 5-.4 9.7-.4 14-.8 1.9-.4 3.1-1.6 3.1-3.5v-24.9c0-1.9-1.2-3.5-3.1-3.5h-14c-1.9 0-3.5 1.6-3.5 3.5m-8.2-3.5h-14c-1.9 0-3.5 1.6-3.5 3.5v26.1c0 1.9 1.6 3.5 3.5 3.5h14c1.9 0 3.5-1.6 3.5-3.5v-26.1c0-1.9-1.5-3.5-3.5-3.5"/><path d="M115 3.1c-.4-1.6-2.3-2.3-3.9-2.3-22.9 2.7-43.9 11.3-61.4 24.5C19.4 48.2 0 84.8 0 126c0 51 30.3 95.3 74.2 114.8 5.4 2.3 12 .8 15.5-3.9l12.4-17.1c-5.8-.8-11.3-1.9-16.7-3.5-2.3-.8-3.5-2.7-3.5-4.7V42.8c0-1.9 1.2-3.9 3.5-4.3 6.6-1.9 13.2-3.5 20.2-4.3l.8-7c0-1.2 1.2-1.9 2.3-1.9h13.6z"/><path d="M201.2 25.3C180.2 9.3 153.8 0 125.4 0h-4.3c-1.6 0-2.3 1.6-1.9 3.1l7.4 22.2h15.5c1.2 0 2.3.8 2.3 1.9l.8 7c7 .8 14 2.3 20.6 4.3 1.9.4 3.1 2.3 3.1 4.3v168.8c0 2.3-1.2 3.9-3.1 4.7-5.4 1.6-11.3 2.7-17.1 3.5l12.4 17.1c3.5 4.7 10.1 6.2 15.5 3.9 43.9-19.5 74.6-63.8 74.6-114.8.1-41.2-19.7-77.8-50-100.7"/></g></svg>
