<svg xmlns="http://www.w3.org/2000/svg" viewBox="0 0 336.5 336.5"><path fill="#002b55" d="M0 0h336.5v336.5H0z"/><path fill="#cd9700" d="M218.3 250.5c0-1.1-.8-2.2-1.8-2.2h-24.1c-1 0-1.8 1.1-1.8 2.2v14.1c0 1.4.8 2.5 1.8 2.5h24.1c1 0 1.8-1.2 1.8-2.5zm-72.5 0c0-1.1-.8-2.2-1.8-2.2h-24.1c-1.1 0-1.8 1.1-1.8 2.2v14.1c0 1.4.7 2.5 1.8 2.5H144c.9 0 1.8-1.2 1.8-2.5zm82.2-38.9c0 1.1.9 2.1 2 2.1l14.7-3.3c1.1 0 2.1-1 2.1-2.3v-70.3c0-1.3-1-2.2-2.1-2.2l-14.7-4.1c-1 0-2 1-2 2.1zm-119.5-78c0-1.1-.9-2.1-2.1-2.1l-14.6 4.1c-1.1 0-2.1.9-2.1 2.2v70.3c0 1.2 1 2.3 2.1 2.3l14.6 3.3c1.2 0 2.1-1 2.1-2.1zm111.9 0c0-1.1-1-2.1-2.2-2.1H118.1c-1.2 0-2 1-2 2.1v78c0 1.1.9 2.1 2 2.1h100.1c1.2 0 2.2-1 2.2-2.1zm2.6-39.4H113.3c-.9 0-1.7.8-1.7 1.6l4.1 25.9c0 .7.8 1.6 1.5 1.6H219c.9 0 1.6-.9 1.6-1.6l4.1-25.9c.1-.8-.8-1.6-1.7-1.6m-58-43.5h6.5V28.1H165zm95.6 207.7s-3.2 29.8-4.1 35.8c-.9 5.9-6 6.1-5.8 6.1l-18.9-6.1s-8.4-12.8-11-16.3c-2.5-3-31.8-2.5-52.4-2.5h-.2c-20.5 0-50.1-.6-52.6 2.5-2.6 3.6-10.9 16.3-10.9 16.3l-19.1 6.1c.4 0-4.6-.2-5.6-6.1-.9-6-4.1-35.8-4.1-35.8l9.7-153.3s1.9-20.6 31.4-20.5c12.2.2 38.6 0 48 0V60.2h-3.7V28.1h-27.5c-8.8 0-15.4 12.8-15.4 12.8-.7 1.2-2 1.7-3.2 1.1-1.1-.6-1.5-2.1-1-3.2.3-.7 8-15.4 19.6-15.4h69.3c11.7 0 18.8 14.7 19.1 15.4.5 1.2.1 2.6-1.1 3.1-1.1.5-2.4 0-3-1.1-.1-.1-6.2-12.8-15-12.8H175v32.1h-3.5v24.4c9.3 0 35.9.2 48 0 29.4-.1 31.2 20.5 31.2 20.5zm-14.1 49-2.5-1-15.3-4.8s-8.1-12.1-10.5-15.7c-2.5-4.1-37.4-2.7-50-2.7-12.5 0-47.5-1.4-50.1 2.7-2.3 3.6-10.5 15.7-10.5 15.7l-15.3 4.8-2.5 1c-.8.6-1.4 1.6-1.4 2.8 0 2 1.3 3.5 3.1 3.7h153.4c1.8-.3 3-1.8 3-3.7.1-1.2-.4-2.2-1.4-2.8"/></svg>
