<svg xmlns="http://www.w3.org/2000/svg" viewBox="0 0 408 408"><path fill="#034ea1" d="M403.4 247.2c-1.3 6.1-2.9 12-4.7 17.8-15.2-5.2-31.7-8.4-46.6-8.4-9.6 0-17.8 1.4-29.2 4.3-3.2.9-3.2.9-6.4 1.7-14.8 4-25 5.8-36.6 5.4l-5.8-18c10.8-.8 22.1-3 37.7-6.8 7.2-1.7 8.1-2 11.1-2.6 11.8-2.7 20.4-3.9 29.3-3.9 17.8.2 36.4 4.2 51.2 10.5"/><path fill="#ec1c24" d="M406.7 227.3c.9-7.7 1.3-15.4 1.3-23.3C408 91.3 316.7 0 204 0S0 91.3 0 204c0 2 0 4 .1 5.9 16.6 9.8 40.6 17.1 59.1 17.1 23 0 40.3-3.4 65.6-11.3.1 0 .1 0 .3-.1l-88.8-61.1h128.3L204 32.9l39.5 121.8h125l-102 72.4 1.2 3.8c11.1-.3 22.3-2.4 39.4-6.5 7.3-1.8 8.3-2 11.3-2.7 13.1-3 23.1-4.4 33.6-4.4 18.9-.1 38.2 3.7 54.7 10"/><path fill="#034ea1" d="M391.9 283.6C360.9 356.7 288.5 408 204 408c-86.2 0-160-53.5-189.8-129.1 15.9 6.5 33 10.6 48.3 10.6 22.2 0 39.6-2.9 61.7-9.2L102 348.8l102-75.7 102 75.7-19.8-60.9c11.1-.4 21.7-2.4 35.4-6.1 3.2-.9 3.2-.9 6.3-1.7 9.9-2.6 16.6-3.7 24.2-3.7 12.6 0 26.8 2.8 39.8 7.2M6 253.2c-1.6-6.6-2.9-13.2-3.9-20 18 8.3 39.3 13.6 57.2 13.6 25.3 0 44.5-3.7 71.4-12.1.8-.3 5.5-1.7 9.3-2.9l-8.4 25.8c-1.8.6-3.2 1-3.5 1.1-25.2 7.9-42.6 11.3-65.6 11.3-17.6-.2-39.1-7.1-56.5-16.8"/></svg>
