<svg xmlns="http://www.w3.org/2000/svg" viewBox="0 0 636.5 636.5"><path fill="#0bbbef" d="M88.3 450.8c4.3-.8 8-1.5 11.8-2.2 12.7-2.6 25.4-5.4 38.2-7.8 5-.9 10.1-.9 15.2-1.2 8.4-.4 16.9-1.3 25.3-.9 17.8.9 35.6 2.4 53.3 3.9 13 1.1 25.9 2.4 38.8 4 13.1 1.7 26.2 3.9 39.3 5.8 5.8.8 11.7 1.6 17.6 2.1 8.7.8 17.4 1.2 26.1 2.1 27.8 3.1 55.7 1.9 83.6 1.8 8.1 0 16.3-1.6 24.3-2.9 8.8-1.4 17.7-3 26.4-5 10.7-2.6 21.4-5.2 31.8-8.9 12.2-4.3 24.1-9.3 35.7-15.1 16.3-8.4 31-19.1 43-33.2 9.9-11.6 17.8-24.1 21.1-39.2 4.4-20.2 1.1-38.6-12.2-54.9-1.8-2.1-3.4-4.4-6.1-7.9 3 .7 5 .7 6.4 1.6 8.7 5.9 15.9 13.1 20.9 22.8 5.3 10.1 8 21.3 7.6 32.7-.4 14.4-5 27.6-11.4 40.5-7.7 15.7-18.6 28.9-31.1 40.7-11.3 10.6-23.9 19.7-37.4 27.2-12.9 7.3-26.1 13.7-40.3 18-9.9 3-19.6 7-29.7 9.2-13.3 3.1-26.8 5.4-40.4 6.9-16.2 1.8-32.4 2.8-48.7 3.1-12.4.2-24.9-1.2-37.3-2.2-10.8-.8-21.6-1.8-32.4-3.1-8.6-1-17.1-2.5-25.7-3.6-8.8-1.2-17.7-2.1-26.5-3.3-15.4-2.2-30.7-4.7-46.1-6.8q-10.8-1.5-21.6-2.1c-22-1.2-44-2.7-66-3.1-13.5-.3-27 1-40.5 2-9.3.7-18.7 1.6-27.9 3.1-9.6 1.5-19.2 3.6-28.5 6.3s-18.3 6.4-27.5 9.7c-5.5 1.9-10.9 3.9-16.4 5.9l-1-.9c.8-1.2 1.3-3 2.5-3.6 15.3-8.6 30.6-17.1 46.1-25.4 4.8-2.6 10.2-4 15.1-6.4 1.5-1 3.5-1.3 7.7-3.8M216.9 185.3c.8-.8 1.6-1.9 2.6-2.3 11.1-4.7 22.2-9.2 33.3-13.9 12.1-5.1 24.2-10.3 37.4-11.1 10.1-.6 20.2.8 28.8 6.8 9.9 6.9 14.6 18.7 9.3 30.1-.9 1.9-3 3.2-4.5 4.8l-1.4-1.1c.2-1 .5-2.1.7-3.1 2-9-3.8-16-12.8-18.5-14.7-4.1-28.7-.5-42.9 3.2-10.5 2.8-21.3 4.8-32 6.6-5.8 1-11.9.7-17.8 1z"/><path fill="#2d5a87" d="M589 283.4c-8.9.5-17.7.8-26.6 1.4-16.9 1.2-33.8 2.7-50.6 3.9-27.7 2.1-54.3 9.1-81 16.2-10.2 2.7-20 6.6-30 9.7-22.3 6.8-44.7 13.6-67.2 20.2-17.3 5.2-34.4 10.8-51.9 15.1-18.2 4.6-36.6 8.1-54.9 11.7-5.5 1.1-11.2 1-16.8 1.1-9.2.2-18.5.5-27.7-.1-12.7-.6-25.2-3.5-36.9-8.6-1.5-.7-2.7-2-4.3-3.2 7 0 13.3.2 19.6 0 11.4-.4 22.9-.8 34.3-1.8 18-1.6 35.2-6.8 52.2-12.2 16.9-5.4 33.6-11.2 50.3-17 12.5-4.3 24.8-8.9 37.3-12.9 23.2-7.4 46.3-15.1 69.8-21.4 16.8-4.6 34.1-7.1 51.1-10.7 22.8-4.8 45.9-5.6 69-4.8 18.1.6 36.1 2.8 53.5 8.8 3.4 1.2 6.8 2.1 10.2 3.2.4.1.9.4 1.3.5zM502 255.2c-5.5-.4-11.1-1.1-16.6-1.2-6.2-.2-12.4-.1-18.6.2s-12.4.8-18.6 1.7c-11.7 1.7-23.6 2.9-35.1 5.8-20.3 5.1-40.4 11.3-60.5 17.2-12.3 3.6-24.3 8.2-36.7 11.5s-24.7 6.1-37.2 8.3c-10.8 1.9-21.7 3.7-32.6 3.9-17.3.3-34.4-2.2-50.2-10-1.1-.5-1.8-1.8-3.6-3.7 4 0 6.7-.4 9.4.1 13.5 2.1 27.4 1.2 40.5-2.6 20.4-5.8 40.6-12.6 60.9-18.8 21.6-6.6 43.1-13.6 64.9-19.3 14.2-3.6 28.9-5.3 43.4-7.3 8.5-1.3 17-1.9 25.6-1.9 14.9.2 29.7 1.9 44.1 6.3 6.6 2 13.1 4.5 19.7 6.8.6.2 1 1.1 1.6 1.7zM444.2 223.7c-10.2 0-19.1-.1-28 0-10.5.2-21 .1-31.4 1.1-11.2 1.1-22.3 3-33.4 5.1-7.3 1.4-14.5 3.8-21.7 5.8-18.2 5-36.3 10.4-54.5 15-17.5 4.4-35.1 9-52.9 11.7-11.9 1.8-24.3.4-36.5.4-9.6.1-18.2-3.5-26.7-7.1-1.1-.4-2.1-1-2.9-1.8-1-1.1-1.9-2.3-2.7-3.5 1.5-.3 3-.4 4.4-.4 12.2 1.3 24.6 2.3 36.6-.9 22.9-6.1 45.6-13 68.4-19.5 18.1-5.2 36.1-11.1 54.4-15.5 11.7-2.8 23.9-3.8 35.9-5.3 7.7-1 15.4-2.1 23.1-1.9 19.6.4 38.7 3.5 57 11 3.5 1.5 6.8 3.6 10.9 5.8"/></svg>
