<svg xmlns="http://www.w3.org/2000/svg" viewBox="0 0 922.817 659.155"><path d="M797.746 656.786c-19.71-3.378-66.819-31.259-128.873-76.271-36.486-26.467-92.768-66.845-125.07-89.73-32.303-22.886-80.028-56.803-106.057-75.37s-57.583-40.913-70.123-49.657-22.808-17.582-22.817-19.639c-.01-2.18 10.141-4.684 24.344-6.004 28.137-2.615 45.742-11.399 64.534-32.199 19.528-21.615 30.82-41.363 92.958-162.564 19.54-38.113 40.72-77.215 47.068-86.895 20.21-30.82 43.796-47.276 78.95-55.085 35.879-7.97 72.888 10.105 99.385 48.538 10.727 15.559 20.867 41.562 50.035 128.309 20.12 59.837 37.883 113.358 39.475 118.936 1.591 5.577 17.647 53.417 35.678 106.31 40.086 117.585 42.204 125.568 42.204 159.08 0 45.224-16.708 76.291-48.06 89.368-11.938 4.979-52.18 6.549-73.63 2.873m-759.939-7.663C13.117 643.118 0 622.09 0 588.508c0-25.232 5.799-44.178 74.589-243.72 15.062-43.69 28.145-82.48 29.075-86.197.929-3.719 2.958-9.803 4.509-13.522 1.55-3.718 7.697-21.21 13.659-38.873 18.478-54.747 37.881-81.881 69.154-96.709 26.52-12.574 61.116-9.762 96.69 7.858 20.062 9.937 154.992 107.102 155.07 111.668.039 2.324-3.352 4.248-7.535 4.276-21.414.144-56.38 20.075-79.394 45.256-21.036 23.016-29.322 34.437-125.31 172.722a32018 32018 0 0 1-42.378 60.845c-12.984 18.591-33.966 49.014-46.627 67.605s-26.97 38.036-31.796 43.21c-20.874 22.373-47.589 32.106-71.899 26.195" style="fill:#0190d3;stroke-width:3.38028"/><path d="M37.807 649.123C13.117 643.118 0 622.09 0 588.508c0-25.232 5.799-44.178 74.589-243.72 15.062-43.69 28.145-82.48 29.075-86.197.929-3.719 2.958-9.803 4.509-13.522 1.55-3.718 7.697-21.21 13.659-38.873 18.478-54.747 37.881-81.881 69.154-96.709 26.52-12.574 61.116-9.762 96.69 7.858 20.062 9.937 154.992 107.102 155.07 111.668.039 2.324-3.352 4.248-7.535 4.276-21.414.144-56.38 20.075-79.394 45.256-21.036 23.016-29.322 34.437-125.31 172.722a32018 32018 0 0 1-42.378 60.845c-12.984 18.591-33.966 49.014-46.627 67.605s-26.97 38.036-31.796 43.21c-20.874 22.373-47.589 32.106-71.899 26.195" style="fill:#6ea841;stroke-width:3.38028"/></svg>
