<svg xmlns="http://www.w3.org/2000/svg" viewBox="0 0 218.1 218.1"><g fill="#e30119"><path d="M0 115.418c.1.1.5.3 1.5.7 58.6 23.5 100.6 25.7 100.6 25.7s2.3.3 3.1.1c33.9-3.1 52.5-26.6 52.5-26.6H0zM174 115.418s-23.7 23.6-54.6 27.4c15.3.7 26.2-1.8 39.7-6.9 23.4-9.4 31.7-20.6 31.7-20.6H174z"/><path d="M199.9 115.418c-20.4 22.7-54.3 27.1-56 27.4 46.5 2.2 69.4-27.5 69.4-27.5h-13.4z"/></g><path fill="#444f55" d="M218.1 110.518c-.6-.4-1.3-.6-1.7-.7-.2 0-.3-.1-.3-.1-.7-.1-1.7-.3-2.7-.4-5.3-.6-8.2-.9-9.1-1l-95-9s-.4-.2 1.5-.9c1.8-.8 9.7-4.3 71.6-22.5l1.2-.3v-.1s-.1 0-.1-.1c-.1 0-.1 0-.2-.1-.3 0-.5-.1-.7-.1-4.5-.2-27.3-.4-73.5 11.4-43.8 12-57.8 20.4-59.2 21.3v.1h.4l167.7 2.6c.1 0 .1-.1.1-.1"/></svg>
